<?xml version="1.0" standalone="no"?>
<!DOCTYPE svg PUBLIC "-//W3C//DTD SVG 20010904//EN"
 "http://www.w3.org/TR/2001/REC-SVG-20010904/DTD/svg10.dtd">
<svg version="1.0" xmlns="http://www.w3.org/2000/svg"
 width="700.000000pt" height="700.000000pt" viewBox="0 0 700.000000 700.000000"
 preserveAspectRatio="xMidYMid meet">
<metadata>
Created by potrace 1.14, written by Peter Selinger 2001-2017
</metadata>
<g transform="translate(0.000000,700.000000) scale(0.100000,-0.100000)"
fill="#000000" stroke="none">
<path d="M2375 6993 c-75 -9 -235 -47 -299 -70 -256 -92 -497 -274 -652 -493
-108 -151 -195 -358 -224 -530 -6 -36 -13 -74 -15 -85 -2 -11 -4 -36 -4 -56
-1 -36 -1 -36 -94 -74 -50 -21 -109 -49 -129 -62 -21 -13 -40 -23 -44 -23 -17
0 -194 -132 -260 -194 -360 -337 -521 -820 -438 -1316 32 -196 133 -432 250
-588 l32 -43 -40 -65 c-314 -517 -256 -1211 141 -1674 130 -153 276 -266 460
-359 64 -32 117 -63 117 -67 1 -5 4 -38 8 -74 14 -147 33 -225 87 -367 152
-392 499 -700 909 -807 129 -34 182 -40 340 -40 124 0 195 5 260 19 14 3 37 7
52 10 55 10 205 65 286 105 130 63 232 135 344 242 16 16 33 28 39 28 6 0 32
-21 58 -47 145 -144 384 -273 600 -323 47 -11 97 -23 111 -26 42 -10 301 -13
365 -4 308 42 556 160 771 365 194 186 336 437 389 690 2 9 17 99 20 120 1 6
3 34 3 63 l2 52 68 32 c315 149 547 371 700 669 44 87 104 247 115 309 3 14 8
36 11 50 18 76 30 200 30 305 -1 225 -56 448 -161 653 -30 59 -61 114 -69 123
-13 15 -12 20 9 45 61 75 147 233 190 349 68 186 91 318 91 525 -1 593 -375
1132 -930 1341 l-51 19 -7 78 c-18 202 -98 417 -224 607 -162 243 -417 435
-702 529 -103 33 -130 39 -240 54 -107 14 -346 7 -436 -13 -257 -56 -522 -195
-670 -352 -17 -18 -36 -33 -42 -33 -7 0 -27 15 -45 33 -160 163 -405 292 -661
349 -87 19 -340 32 -421 21z m244 -637 c146 -15 301 -95 420 -216 39 -40 115
-154 132 -197 7 -20 10 -739 11 -2446 l0 -2418 -31 -61 c-88 -172 -267 -315
-446 -357 -89 -21 -99 -22 -180 -22 -197 -1 -372 74 -512 217 -138 143 -203
311 -198 510 6 186 66 331 200 479 70 78 90 125 92 225 1 72 -2 93 -23 136
-30 64 -87 122 -150 154 -42 21 -62 25 -139 25 -111 -1 -161 -22 -240 -104
-70 -72 -166 -199 -205 -273 -17 -32 -36 -58 -42 -58 -18 0 -131 85 -186 141
-222 225 -289 569 -170 869 49 123 140 244 251 333 67 54 218 130 292 146 28
6 61 14 75 17 14 4 180 7 370 9 322 3 349 4 401 24 61 23 137 89 165 143 94
182 5 396 -191 458 -44 15 -605 19 -750 6 -168 -15 -342 -65 -507 -146 l-97
-48 -25 44 c-75 134 -107 267 -102 424 4 126 7 145 37 234 81 239 269 429 507
510 37 13 70 23 75 24 4 0 20 3 35 6 15 3 44 8 65 11 101 12 199 86 245 185
28 59 30 89 19 288 -10 199 58 376 201 520 80 81 138 120 238 162 71 29 220
59 274 54 14 -1 54 -5 89 -8z m2016 -12 c111 -22 240 -92 328 -177 110 -106
164 -199 203 -347 18 -71 21 -101 16 -195 -9 -195 -7 -227 20 -286 28 -62 84
-121 140 -150 21 -11 84 -29 141 -40 56 -11 125 -28 153 -39 198 -73 358 -217
449 -405 63 -129 85 -231 81 -375 -2 -63 -6 -124 -9 -135 -27 -109 -59 -193
-97 -258 l-21 -36 -97 48 c-53 27 -137 62 -187 79 -79 26 -122 37 -225 57 -68
13 -203 18 -495 18 -305 0 -323 -2 -377 -22 -72 -28 -141 -94 -175 -167 -78
-171 17 -378 197 -431 45 -13 116 -16 390 -18 195 -1 354 -7 380 -13 100 -24
122 -31 185 -60 235 -111 404 -321 455 -571 21 -104 19 -253 -5 -356 -34 -143
-126 -302 -235 -401 -50 -47 -144 -114 -159 -114 -5 0 -24 26 -41 58 -72 136
-227 313 -308 353 -67 34 -206 34 -273 1 -196 -97 -239 -344 -89 -512 116
-130 166 -227 195 -375 13 -67 13 -198 0 -260 -45 -224 -185 -405 -390 -505
-206 -101 -443 -96 -645 13 -65 35 -141 96 -192 152 -41 46 -103 142 -119 181
-11 31 -14 4847 -3 4880 4 10 25 49 46 85 104 178 313 314 512 335 33 4 62 7
63 8 7 6 128 -7 188 -20z"/>
</g>
</svg>
